# xmcd
#
# Track frame offsets:
#	150
#	14337
#	35170
#	52535
#	66765
#	80185
#	98250
#	112405
#	129305
#	144270
#	158375
#	172095
#	187515
#	199425
#	216350
#	232835
#	249075
#	260795
#	274105
#
# Disc length: 3878
#
# Revision: 3
# Processed by: cddbd v1.5.2PL0 Copyright (c) Steve Scherf et al.
# Submitted via: kJams Pro (development) 1.0patch44.17
#
DISCID=010f2413
DTITLE=Various Artist - SAVA 16
DYEAR=1900
DGENRE=various
TTITLE0=Marty Robbins - Devil Woman
TTITLE1=Marty Robbins - El Paso
TTITLE2=Marty Robbins - My Woman, My Woman, My Wife
TTITLE3=Tammy Wynette - D-I-V-O-R-C-E
TTITLE4=Tammy Wynette - Stand By Your Man
TTITLE5=Ray Price - For The Good Times
TTITLE6=Ray Price - Heartaches By The Number
TTITLE7=Johnny Lee - Lookin For Love
TTITLE8=Helen Reddy - Delta Dawn
TTITLE9=Jeanne Pruett - Satin Sheets
TTITLE10=Johnny Paycheck - Take This Job And Shove It
TTITLE11=Kris Kristofferson - Why Me
TTITLE12=Ronnie Milsap - Daydreams About Night Things
TTITLE13=Ronnie Milsap - Stranger In My House
TTITLE14=Waylon Jennings - Luckenbach Texas
TTITLE15=Lee Greenwood - It Turns Me Inside Out
TTITLE16=Forester Sisters - Just In Case
TTITLE17=Gatlin Brothers - Broken Lady
TTITLE18=Steve Wariner - Kansas City Lights
EXTD=
EXTT0=
EXTT1=
EXTT2=
EXTT3=
EXTT4=
EXTT5=
EXTT6=
EXTT7=
EXTT8=
EXTT9=
EXTT10=
EXTT11=
EXTT12=
EXTT13=
EXTT14=
EXTT15=
EXTT16=
EXTT17=
EXTT18=
PLAYORDER=
